<svg id="visual" viewBox="0 0 900 100" width="900" height="100" xmlns="http://www.w3.org/2000/svg" xmlns:xlink="http://www.w3.org/1999/xlink" version="1.1"><rect x="0" y="0" width="900" height="100" fill="#dd3f31"></rect><path d="M0 41L15 41.2C30 41.3 60 41.7 90 44.8C120 48 150 54 180 51C210 48 240 36 270 32.7C300 29.3 330 34.7 360 37.5C390 40.3 420 40.7 450 43.8C480 47 510 53 540 49.5C570 46 600 33 630 33.2C660 33.3 690 46.7 720 52.7C750 58.7 780 57.3 810 58.7C840 60 870 64 885 66L900 68L900 101L885 101C870 101 840 101 810 101C780 101 750 101 720 101C690 101 660 101 630 101C600 101 570 101 540 101C510 101 480 101 450 101C420 101 390 101 360 101C330 101 300 101 270 101C240 101 210 101 180 101C150 101 120 101 90 101C60 101 30 101 15 101L0 101Z" fill="#ef9494"></path><path d="M0 57L15 54.3C30 51.7 60 46.3 90 47.3C120 48.3 150 55.7 180 61.7C210 67.7 240 72.3 270 72C300 71.7 330 66.3 360 65.5C390 64.7 420 68.3 450 72C480 75.7 510 79.3 540 77.7C570 76 600 69 630 62.2C660 55.3 690 48.7 720 45.7C750 42.7 780 43.3 810 47.2C840 51 870 58 885 61.5L900 65L900 101L885 101C870 101 840 101 810 101C780 101 750 101 720 101C690 101 660 101 630 101C600 101 570 101 540 101C510 101 480 101 450 101C420 101 390 101 360 101C330 101 300 101 270 101C240 101 210 101 180 101C150 101 120 101 90 101C60 101 30 101 15 101L0 101Z" fill="#6e4f65"></path><path d="M0 97L15 90.8C30 84.7 60 72.3 90 70.3C120 68.3 150 76.7 180 82.7C210 88.7 240 92.3 270 89.3C300 86.3 330 76.7 360 74.7C390 72.7 420 78.3 450 83C480 87.7 510 91.3 540 89.7C570 88 600 81 630 75.2C660 69.3 690 64.7 720 62.3C750 60 780 60 810 66.3C840 72.7 870 85.3 885 91.7L900 98L900 101L885 101C870 101 840 101 810 101C780 101 750 101 720 101C690 101 660 101 630 101C600 101 570 101 540 101C510 101 480 101 450 101C420 101 390 101 360 101C330 101 300 101 270 101C240 101 210 101 180 101C150 101 120 101 90 101C60 101 30 101 15 101L0 101Z" fill="#0f0f10"></path></svg>