<svg id="visual" viewBox="0 0 900 250" width="900" height="250" xmlns="http://www.w3.org/2000/svg" xmlns:xlink="http://www.w3.org/1999/xlink" version="1.1"><path d="M0 134L16.7 135.3C33.3 136.7 66.7 139.3 100 141.8C133.3 144.3 166.7 146.7 200 140.5C233.3 134.3 266.7 119.7 300 121.7C333.3 123.7 366.7 142.3 400 138.3C433.3 134.3 466.7 107.7 500 105C533.3 102.3 566.7 123.7 600 137C633.3 150.3 666.7 155.7 700 147.8C733.3 140 766.7 119 800 112.2C833.3 105.3 866.7 112.7 883.3 116.3L900 120L900 251L883.3 251C866.7 251 833.3 251 800 251C766.7 251 733.3 251 700 251C666.7 251 633.3 251 600 251C566.7 251 533.3 251 500 251C466.7 251 433.3 251 400 251C366.7 251 333.3 251 300 251C266.7 251 233.3 251 200 251C166.7 251 133.3 251 100 251C66.7 251 33.3 251 16.7 251L0 251Z" fill="#e19892"></path><path d="M0 161L16.7 155C33.3 149 66.7 137 100 132.8C133.3 128.7 166.7 132.3 200 141C233.3 149.7 266.7 163.3 300 172.5C333.3 181.7 366.7 186.3 400 186.3C433.3 186.3 466.7 181.7 500 171.8C533.3 162 566.7 147 600 138.3C633.3 129.7 666.7 127.3 700 136.3C733.3 145.3 766.7 165.7 800 176.3C833.3 187 866.7 188 883.3 188.5L900 189L900 251L883.3 251C866.7 251 833.3 251 800 251C766.7 251 733.3 251 700 251C666.7 251 633.3 251 600 251C566.7 251 533.3 251 500 251C466.7 251 433.3 251 400 251C366.7 251 333.3 251 300 251C266.7 251 233.3 251 200 251C166.7 251 133.3 251 100 251C66.7 251 33.3 251 16.7 251L0 251Z" fill="#6a4f60"></path><path d="M0 213L16.7 211.7C33.3 210.3 66.7 207.7 100 208C133.3 208.3 166.7 211.7 200 211.8C233.3 212 266.7 209 300 208.3C333.3 207.7 366.7 209.3 400 208.2C433.3 207 466.7 203 500 202.5C533.3 202 566.7 205 600 209.7C633.3 214.3 666.7 220.7 700 215.2C733.3 209.7 766.7 192.3 800 192.3C833.3 192.3 866.7 209.7 883.3 218.3L900 227L900 251L883.3 251C866.7 251 833.3 251 800 251C766.7 251 733.3 251 700 251C666.7 251 633.3 251 600 251C566.7 251 533.3 251 500 251C466.7 251 433.3 251 400 251C366.7 251 333.3 251 300 251C266.7 251 233.3 251 200 251C166.7 251 133.3 251 100 251C66.7 251 33.3 251 16.7 251L0 251Z" fill="#0f0f10"></path></svg>