<svg id="visual" viewBox="0 0 900 100" width="900" height="100" xmlns="http://www.w3.org/2000/svg" xmlns:xlink="http://www.w3.org/1999/xlink" version="1.1"><rect x="0" y="0" width="900" height="100" fill="#0f0f10"></rect><path d="M0 21L15 28C30 35 60 49 90 53.2C120 57.3 150 51.7 180 45.2C210 38.7 240 31.3 270 27.2C300 23 330 22 360 27C390 32 420 43 450 45C480 47 510 40 540 34.8C570 29.7 600 26.3 630 32.5C660 38.7 690 54.3 720 57.2C750 60 780 50 810 42.3C840 34.7 870 29.3 885 26.7L900 24L900 101L885 101C870 101 840 101 810 101C780 101 750 101 720 101C690 101 660 101 630 101C600 101 570 101 540 101C510 101 480 101 450 101C420 101 390 101 360 101C330 101 300 101 270 101C240 101 210 101 180 101C150 101 120 101 90 101C60 101 30 101 15 101L0 101Z" fill="#101c24"></path><path d="M0 46L15 48.8C30 51.7 60 57.3 90 60.5C120 63.7 150 64.3 180 63.3C210 62.3 240 59.7 270 57.3C300 55 330 53 360 52.5C390 52 420 53 450 56.5C480 60 510 66 540 70C570 74 600 76 630 73.2C660 70.3 690 62.7 720 60.5C750 58.3 780 61.7 810 61.7C840 61.7 870 58.3 885 56.7L900 55L900 101L885 101C870 101 840 101 810 101C780 101 750 101 720 101C690 101 660 101 630 101C600 101 570 101 540 101C510 101 480 101 450 101C420 101 390 101 360 101C330 101 300 101 270 101C240 101 210 101 180 101C150 101 120 101 90 101C60 101 30 101 15 101L0 101Z" fill="#0b1923"></path><path d="M0 62L15 61C30 60 60 58 90 61.5C120 65 150 74 180 79.3C210 84.7 240 86.3 270 83.8C300 81.3 330 74.7 360 72.7C390 70.7 420 73.3 450 74.7C480 76 510 76 540 76.8C570 77.7 600 79.3 630 77.7C660 76 690 71 720 66.2C750 61.3 780 56.7 810 54.8C840 53 870 54 885 54.5L900 55L900 101L885 101C870 101 840 101 810 101C780 101 750 101 720 101C690 101 660 101 630 101C600 101 570 101 540 101C510 101 480 101 450 101C420 101 390 101 360 101C330 101 300 101 270 101C240 101 210 101 180 101C150 101 120 101 90 101C60 101 30 101 15 101L0 101Z" fill="#051521"></path><path d="M0 84L15 83.3C30 82.7 60 81.3 90 79.2C120 77 150 74 180 75.7C210 77.3 240 83.7 270 88C300 92.3 330 94.7 360 95.8C390 97 420 97 450 92.7C480 88.3 510 79.7 540 76.3C570 73 600 75 630 79C660 83 690 89 720 91.7C750 94.3 780 93.7 810 93C840 92.3 870 91.7 885 91.3L900 91L900 101L885 101C870 101 840 101 810 101C780 101 750 101 720 101C690 101 660 101 630 101C600 101 570 101 540 101C510 101 480 101 450 101C420 101 390 101 360 101C330 101 300 101 270 101C240 101 210 101 180 101C150 101 120 101 90 101C60 101 30 101 15 101L0 101Z" fill="#001220"></path></svg>