<svg id="visual" viewBox="0 0 900 100" width="900" height="100" xmlns="http://www.w3.org/2000/svg" xmlns:xlink="http://www.w3.org/1999/xlink" version="1.1"><rect x="0" y="0" width="900" height="100" fill="#001220"></rect><path d="M0 44L21.5 42.5C43 41 86 38 128.8 37.8C171.7 37.7 214.3 40.3 257.2 43.2C300 46 343 49 385.8 51.2C428.7 53.3 471.3 54.7 514.2 53C557 51.3 600 46.7 642.8 45.7C685.7 44.7 728.3 47.3 771.2 47C814 46.7 857 43.3 878.5 41.7L900 40L900 101L878.5 101C857 101 814 101 771.2 101C728.3 101 685.7 101 642.8 101C600 101 557 101 514.2 101C471.3 101 428.7 101 385.8 101C343 101 300 101 257.2 101C214.3 101 171.7 101 128.8 101C86 101 43 101 21.5 101L0 101Z" fill="#fa7268"></path><path d="M0 53L21.5 55.2C43 57.3 86 61.7 128.8 63.8C171.7 66 214.3 66 257.2 64C300 62 343 58 385.8 57.7C428.7 57.3 471.3 60.7 514.2 63.5C557 66.3 600 68.7 642.8 69C685.7 69.3 728.3 67.7 771.2 68.2C814 68.7 857 71.3 878.5 72.7L900 74L900 101L878.5 101C857 101 814 101 771.2 101C728.3 101 685.7 101 642.8 101C600 101 557 101 514.2 101C471.3 101 428.7 101 385.8 101C343 101 300 101 257.2 101C214.3 101 171.7 101 128.8 101C86 101 43 101 21.5 101L0 101Z" fill="#ec594d"></path><path d="M0 77L21.5 78.3C43 79.7 86 82.3 128.8 84C171.7 85.7 214.3 86.3 257.2 84.8C300 83.3 343 79.7 385.8 76.8C428.7 74 471.3 72 514.2 70.8C557 69.7 600 69.3 642.8 72.2C685.7 75 728.3 81 771.2 81.2C814 81.3 857 75.7 878.5 72.8L900 70L900 101L878.5 101C857 101 814 101 771.2 101C728.3 101 685.7 101 642.8 101C600 101 557 101 514.2 101C471.3 101 428.7 101 385.8 101C343 101 300 101 257.2 101C214.3 101 171.7 101 128.8 101C86 101 43 101 21.5 101L0 101Z" fill="#dd3f31"></path></svg>